Oswald--100.ufo
<glyph name="percent" format="1">
  <advance width="1155"/>
  <unicode hex="0025"/>
  <outline>
    <contour>
      <point x="267" y="939" type="curve" smooth="yes"/>
      <point x="189" y="939"/>
      <point x="161" y="1004"/>
      <point x="161" y="1120" type="curve" smooth="yes"/>
      <point x="161" y="1465" type="line" smooth="yes"/>
      <point x="161" y="1574"/>
      <point x="190" y="1644"/>
      <point x="267" y="1644" type="curve" smooth="yes"/>
      <point x="344" y="1644"/>
      <point x="374" y="1574"/>
      <point x="374" y="1466" type="curve" smooth="yes"/>
      <point x="374" y="1121" type="line" smooth="yes"/>
      <point x="374" y="1004"/>
      <point x="345" y="939"/>
    </contour>
    <contour>
      <point x="267" y="876" type="curve" smooth="yes"/>
      <point x="405" y="876"/>
      <point x="445" y="985"/>
      <point x="445" y="1125" type="curve" smooth="yes"/>
      <point x="445" y="1463" type="line" smooth="yes"/>
      <point x="445" y="1604"/>
      <point x="400" y="1707"/>
      <point x="267" y="1707" type="curve" smooth="yes"/>
      <point x="135" y="1707"/>
      <point x="90" y="1604"/>
      <point x="90" y="1462" type="curve" smooth="yes"/>
      <point x="90" y="1126" type="line" smooth="yes"/>
      <point x="90" y="985"/>
      <point x="129" y="876"/>
    </contour>
    <contour>
      <point x="888" y="48" type="curve" smooth="yes"/>
      <point x="810" y="48"/>
      <point x="781" y="114"/>
      <point x="781" y="230" type="curve" smooth="yes"/>
      <point x="781" y="575" type="line" smooth="yes"/>
      <point x="781" y="684"/>
      <point x="810" y="754"/>
      <point x="888" y="754" type="curve" smooth="yes"/>
      <point x="965" y="754"/>
      <point x="994" y="684"/>
      <point x="994" y="576" type="curve" smooth="yes"/>
      <point x="994" y="230" type="line" smooth="yes"/>
      <point x="994" y="114"/>
      <point x="966" y="48"/>
    </contour>
    <contour>
      <point x="888" y="-14" type="curve" smooth="yes"/>
      <point x="1026" y="-14"/>
      <point x="1065" y="94"/>
      <point x="1065" y="235" type="curve" smooth="yes"/>
      <point x="1065" y="573" type="line" smooth="yes"/>
      <point x="1065" y="714"/>
      <point x="1021" y="816"/>
      <point x="888" y="816" type="curve" smooth="yes"/>
      <point x="755" y="816"/>
      <point x="711" y="714"/>
      <point x="711" y="572" type="curve" smooth="yes"/>
      <point x="711" y="236" type="line" smooth="yes"/>
      <point x="711" y="95"/>
      <point x="749" y="-14"/>
    </contour>
    <contour>
      <point x="243" y="0" type="line"/>
      <point x="319" y="0" type="line"/>
      <point x="915" y="1686" type="line"/>
      <point x="841" y="1686" type="line"/>
    </contour>
  </outline>
</glyph>
<glyph name="asterisk" format="1">
  <advance width="707"/>
  <unicode hex="002A"/>
  <outline>
    <contour>
      <point x="177" y="1022" type="line"/>
      <point x="355" y="1284" type="line"/>
      <point x="534" y="1022" type="line"/>
      <point x="585" y="1053" type="line"/>
      <point x="390" y="1308" type="line"/>
      <point x="659" y="1418" type="line"/>
      <point x="637" y="1471" type="line"/>
      <point x="378" y="1347" type="line"/>
      <point x="391" y="1658" type="line"/>
      <point x="326" y="1658" type="line"/>
      <point x="336" y="1347" type="line"/>
      <point x="73" y="1471" type="line"/>
      <point x="50" y="1418" type="line"/>
      <point x="321" y="1307" type="line"/>
      <point x="126" y="1056" type="line"/>
    </contour>
  </outline>
</glyph>
<glyph name="zero" format="1">
  <advance width="1010"/>
  <unicode hex="0030"/>
  <outline>
    <contour>
      <point x="505" y="34" type="curve" smooth="yes"/>
      <point x="278" y="34"/>
      <point x="206" y="197"/>
      <point x="206" y="442" type="curve" smooth="yes"/>
      <point x="206" y="1215" type="line" smooth="yes"/>
      <point x="206" y="1458"/>
      <point x="281" y="1621"/>
      <point x="505" y="1621" type="curve" smooth="yes"/>
      <point x="729" y="1621"/>
      <point x="802" y="1458"/>
      <point x="802" y="1215" type="curve" smooth="yes"/>
      <point x="802" y="442" type="line" smooth="yes"/>
      <point x="802" y="198"/>
      <point x="732" y="34"/>
    </contour>
    <contour>
      <point x="505" y="-23" type="curve" smooth="yes"/>
      <point x="816" y="-23"/>
      <point x="885" y="180"/>
      <point x="885" y="465" type="curve" smooth="yes"/>
      <point x="885" y="1193" type="line" smooth="yes"/>
      <point x="885" y="1477"/>
      <point x="801" y="1678"/>
      <point x="505" y="1678" type="curve" smooth="yes"/>
      <point x="209" y="1678"/>
      <point x="125" y="1477"/>
      <point x="125" y="1193" type="curve" smooth="yes"/>
      <point x="125" y="465" type="line" smooth="yes"/>
      <point x="125" y="182"/>
      <point x="196" y="-23"/>
    </contour>
  </outline>
</glyph>
<glyph name="five" format="1">
  <advance width="1007"/>
  <unicode hex="0035"/>
  <outline>
    <contour>
      <point x="520" y="-20" type="curve" smooth="yes"/>
      <point x="754" y="-20"/>
      <point x="875" y="123"/>
      <point x="875" y="500" type="curve" smooth="yes"/>
      <point x="875" y="858"/>
      <point x="774" y="1031"/>
      <point x="552" y="1031" type="curve" smooth="yes"/>
      <point x="409" y="1031"/>
      <point x="326" y="968"/>
      <point x="283" y="903" type="curve"/>
      <point x="285" y="1599" type="line"/>
      <point x="789" y="1599" type="line"/>
      <point x="793" y="1658" type="line"/>
      <point x="221" y="1658" type="line"/>
      <point x="221" y="828" type="line"/>
      <point x="283" y="828" type="line"/>
      <point x="361" y="940"/>
      <point x="449" y="968"/>
      <point x="530" y="968" type="curve" smooth="yes"/>
      <point x="700" y="968"/>
      <point x="801" y="880"/>
      <point x="801" y="495" type="curve" smooth="yes"/>
      <point x="801" y="165"/>
      <point x="724" y="41"/>
      <point x="527" y="41" type="curve" smooth="yes"/>
      <point x="344" y="41"/>
      <point x="260" y="134"/>
      <point x="260" y="390" type="curve"/>
      <point x="184" y="390" type="line"/>
      <point x="184" y="114"/>
      <point x="287" y="-20"/>
    </contour>
  </outline>
</glyph>
<glyph name="six" format="1">
  <advance width="1009"/>
  <unicode hex="0036"/>
  <outline>
    <contour>
      <point x="518" y="-23" type="curve" smooth="yes"/>
      <point x="788" y="-23"/>
      <point x="893" y="136"/>
      <point x="893" y="445" type="curve" smooth="yes"/>
      <point x="893" y="850"/>
      <point x="800" y="956"/>
      <point x="532" y="956" type="curve" smooth="yes"/>
      <point x="414" y="956"/>
      <point x="297" y="903"/>
      <point x="239" y="876" type="curve"/>
      <point x="239" y="1253" type="line" smooth="yes"/>
      <point x="239" y="1548"/>
      <point x="371" y="1612"/>
      <point x="525" y="1612" type="curve" smooth="yes"/>
      <point x="700" y="1612"/>
      <point x="782" y="1538"/>
      <point x="782" y="1272" type="curve"/>
      <point x="855" y="1272" type="line"/>
      <point x="855" y="1272"/>
      <point x="855" y="1313"/>
      <point x="855" y="1314" type="curve" smooth="yes"/>
      <point x="854" y="1564"/>
      <point x="758" y="1678"/>
      <point x="517" y="1678" type="curve" smooth="yes"/>
      <point x="271" y="1678"/>
      <point x="161" y="1526"/>
      <point x="161" y="1241" type="curve" smooth="yes"/>
      <point x="161" y="470" type="line" smooth="yes"/>
      <point x="161" y="129"/>
      <point x="264" y="-23"/>
    </contour>
    <contour>
      <point x="518" y="44" type="curve" smooth="yes"/>
      <point x="342" y="44"/>
      <point x="239" y="117"/>
      <point x="239" y="488" type="curve" smooth="yes"/>
      <point x="239" y="815" type="line"/>
      <point x="287" y="839"/>
      <point x="418" y="892"/>
      <point x="518" y="892" type="curve" smooth="yes"/>
      <point x="765" y="892"/>
      <point x="810" y="792"/>
      <point x="810" y="442" type="curve" smooth="yes"/>
      <point x="810" y="103"/>
      <point x="699" y="44"/>
    </contour>
  </outline>
</glyph>
<glyph name="eight" format="1">
  <advance width="1007"/>
  <unicode hex="0038"/>
  <outline>
    <contour>
      <point x="504" y="-24" type="curve" smooth="yes"/>
      <point x="774" y="-24"/>
      <point x="873" y="156"/>
      <point x="873" y="422" type="curve" smooth="yes"/>
      <point x="873" y="778"/>
      <point x="702" y="831"/>
      <point x="601" y="867" type="curve"/>
      <point x="758" y="902"/>
      <point x="862" y="1029"/>
      <point x="862" y="1267" type="curve" smooth="yes"/>
      <point x="862" y="1488"/>
      <point x="779" y="1678"/>
      <point x="504" y="1678" type="curve" smooth="yes"/>
      <point x="228" y="1678"/>
      <point x="146" y="1493"/>
      <point x="146" y="1273" type="curve" smooth="yes"/>
      <point x="146" y="1035"/>
      <point x="249" y="902"/>
      <point x="406" y="867" type="curve"/>
      <point x="306" y="831"/>
      <point x="134" y="779"/>
      <point x="134" y="422" type="curve" smooth="yes"/>
      <point x="134" y="156"/>
      <point x="233" y="-24"/>
    </contour>
    <contour>
      <point x="504" y="40" type="curve" smooth="yes"/>
      <point x="337" y="40"/>
      <point x="214" y="122"/>
      <point x="214" y="426" type="curve" smooth="yes"/>
      <point x="214" y="674"/>
      <point x="295" y="809"/>
      <point x="504" y="836" type="curve" smooth="yes"/>
      <point x="711" y="809"/>
      <point x="794" y="674"/>
      <point x="794" y="426" type="curve" smooth="yes"/>
      <point x="794" y="122"/>
      <point x="670" y="40"/>
    </contour>
    <contour>
      <point x="504" y="899" type="curve" smooth="yes"/>
      <point x="296" y="914"/>
      <point x="223" y="1043"/>
      <point x="223" y="1264" type="curve" smooth="yes"/>
      <point x="223" y="1511"/>
      <point x="317" y="1610"/>
      <point x="504" y="1610" type="curve" smooth="yes"/>
      <point x="689" y="1610"/>
      <point x="785" y="1512"/>
      <point x="785" y="1264" type="curve" smooth="yes"/>
      <point x="785" y="1043"/>
      <point x="712" y="914"/>
    </contour>
  </outline>
</glyph>
<glyph name="greater" format="1">
  <advance width="723"/>
  <unicode hex="003E"/>
  <outline>
    <contour>
      <point x="117" y="181" type="line"/>
      <point x="665" y="623" type="line"/>
      <point x="665" y="696" type="line"/>
      <point x="117" y="1119" type="line"/>
      <point x="117" y="1033" type="line"/>
      <point x="601" y="660" type="line"/>
      <point x="117" y="267" type="line"/>
    </contour>
  </outline>
</glyph>
<glyph name="D" format="1">
  <advance width="1053"/>
  <unicode hex="0044"/>
  <outline>
    <contour>
      <point x="238" y="66" type="line"/>
      <point x="238" y="1592" type="line"/>
      <point x="524" y="1592" type="line" smooth="yes"/>
      <point x="784" y="1592"/>
      <point x="851" y="1426"/>
      <point x="851" y="1186" type="curve" smooth="yes"/>
      <point x="851" y="483" type="line" smooth="yes"/>
      <point x="851" y="269"/>
      <point x="801" y="66"/>
      <point x="529" y="66" type="curve" smooth="yes"/>
    </contour>
    <contour>
      <point x="159" y="0" type="line"/>
      <point x="532" y="0" type="line" smooth="yes"/>
      <point x="844" y="0"/>
      <point x="930" y="213"/>
      <point x="930" y="480" type="curve" smooth="yes"/>
      <point x="930" y="1190" type="line" smooth="yes"/>
      <point x="930" y="1436"/>
      <point x="843" y="1658"/>
      <point x="525" y="1658" type="curve" smooth="yes"/>
      <point x="159" y="1658" type="line"/>
    </contour>
  </outline>
</glyph>
<glyph name="O" format="1">
  <advance width="1042"/>
  <unicode hex="004F"/>
  <outline>
    <contour>
      <point x="521" y="44" type="curve" smooth="yes"/>
      <point x="268" y="44"/>
      <point x="203" y="204"/>
      <point x="203" y="441" type="curve" smooth="yes"/>
      <point x="203" y="1217" type="line" smooth="yes"/>
      <point x="203" y="1454"/>
      <point x="268" y="1612"/>
      <point x="521" y="1612" type="curve" smooth="yes"/>
      <point x="774" y="1612"/>
      <point x="839" y="1453"/>
      <point x="839" y="1217" type="curve" smooth="yes"/>
      <point x="839" y="441" type="line" smooth="yes"/>
      <point x="839" y="205"/>
      <point x="774" y="44"/>
    </contour>
    <contour>
      <point x="521" y="-23" type="curve" smooth="yes"/>
      <point x="841" y="-23"/>
      <point x="918" y="184"/>
      <point x="918" y="454" type="curve" smooth="yes"/>
      <point x="918" y="1209" type="line" smooth="yes"/>
      <point x="918" y="1478"/>
      <point x="830" y="1678"/>
      <point x="521" y="1678" type="curve" smooth="yes"/>
      <point x="212" y="1678"/>
      <point x="124" y="1478"/>
      <point x="124" y="1209" type="curve" smooth="yes"/>
      <point x="124" y="458" type="line" smooth="yes"/>
      <point x="124" y="187"/>
      <point x="200" y="-23"/>
    </contour>
  </outline>
</glyph>
<glyph name="Q" format="1">
  <advance width="1062"/>
  <unicode hex="0051"/>
  <outline>
    <contour>
      <point x="876" y="-315" type="curve"/>
      <point x="879" y="-239" type="line"/>
      <point x="824" y="-204"/>
      <point x="712" y="-79"/>
      <point x="659" y="-9" type="curve"/>
      <point x="874" y="41"/>
      <point x="937" y="225"/>
      <point x="937" y="454" type="curve" smooth="yes"/>
      <point x="937" y="1209" type="line" smooth="yes"/>
      <point x="937" y="1478"/>
      <point x="839" y="1678"/>
      <point x="530" y="1678" type="curve" smooth="yes"/>
      <point x="222" y="1678"/>
      <point x="124" y="1478"/>
      <point x="124" y="1209" type="curve" smooth="yes"/>
      <point x="124" y="458" type="line" smooth="yes"/>
      <point x="124" y="187"/>
      <point x="210" y="-23"/>
      <point x="530" y="-23" type="curve" smooth="yes"/>
      <point x="553" y="-23"/>
      <point x="575" y="-22"/>
      <point x="596" y="-20" type="curve"/>
      <point x="702" y="-165"/>
      <point x="805" y="-281"/>
    </contour>
    <contour>
      <point x="530" y="44" type="curve" smooth="yes"/>
      <point x="277" y="44"/>
      <point x="203" y="204"/>
      <point x="203" y="441" type="curve" smooth="yes"/>
      <point x="203" y="1217" type="line" smooth="yes"/>
      <point x="203" y="1454"/>
      <point x="277" y="1612"/>
      <point x="530" y="1612" type="curve" smooth="yes"/>
      <point x="784" y="1612"/>
      <point x="858" y="1453"/>
      <point x="858" y="1217" type="curve" smooth="yes"/>
      <point x="858" y="441" type="line" smooth="yes"/>
      <point x="858" y="205"/>
      <point x="783" y="44"/>
    </contour>
  </outline>
</glyph>
<glyph name="U" format="1">
  <advance width="1087"/>
  <unicode hex="0055"/>
  <outline>
    <contour>
      <point x="543" y="-23" type="curve" smooth="yes"/>
      <point x="839" y="-23"/>
      <point x="947" y="139"/>
      <point x="947" y="341" type="curve" smooth="yes"/>
      <point x="947" y="1658" type="line"/>
      <point x="869" y="1658" type="line"/>
      <point x="869" y="342" type="line" smooth="yes"/>
      <point x="869" y="170"/>
      <point x="779" y="44"/>
      <point x="543" y="44" type="curve" smooth="yes"/>
      <point x="292" y="44"/>
      <point x="217" y="167"/>
      <point x="217" y="342" type="curve" smooth="yes"/>
      <point x="217" y="1658" type="line"/>
      <point x="140" y="1658" type="line"/>
      <point x="140" y="341" type="line" smooth="yes"/>
      <point x="140" y="139"/>
      <point x="230" y="-23"/>
    </contour>
  </outline>
</glyph>
<glyph name="Y" format="1">
  <advance width="935"/>
  <unicode hex="0059"/>
  <unicode hex="04AE"/>
  <outline>
    <contour>
      <point x="435" y="0" type="line"/>
      <point x="516" y="0" type="line"/>
      <point x="516" y="515" type="line"/>
      <point x="889" y="1658" type="line"/>
      <point x="804" y="1658" type="line"/>
      <point x="478" y="608" type="line"/>
      <point x="132" y="1658" type="line"/>
      <point x="46" y="1658" type="line"/>
      <point x="435" y="515" type="line"/>
    </contour>
  </outline>
</glyph>
<glyph name="asciicircum" format="1">
  <advance width="703"/>
  <unicode hex="005E"/>
  <outline>
    <contour>
      <point x="48" y="1097" type="line"/>
      <point x="108" y="1097" type="line"/>
      <point x="352" y="1615" type="line"/>
      <point x="595" y="1097" type="line"/>
      <point x="655" y="1097" type="line"/>
      <point x="396" y="1658" type="line"/>
      <point x="307" y="1658" type="line"/>
    </contour>
  </outline>
</glyph>
<glyph name="f" format="1">
  <advance width="508"/>
  <unicode hex="0066"/>
  <outline>
    <contour>
      <point x="198" y="0" type="line"/>
      <point x="276" y="0" type="line"/>
      <point x="276" y="1131" type="line"/>
      <point x="479" y="1131" type="line"/>
      <point x="479" y="1184" type="line"/>
      <point x="276" y="1184" type="line"/>
      <point x="276" y="1364" type="line" smooth="yes"/>
      <point x="276" y="1503"/>
      <point x="290" y="1553"/>
      <point x="384" y="1553" type="curve" smooth="yes"/>
      <point x="411" y="1553"/>
      <point x="445" y="1546"/>
      <point x="472" y="1541" type="curve"/>
      <point x="472" y="1601" type="line"/>
      <point x="446" y="1610"/>
      <point x="402" y="1615"/>
      <point x="373" y="1615" type="curve" smooth="yes"/>
      <point x="206" y="1615"/>
      <point x="198" y="1502"/>
      <point x="198" y="1372" type="curve" smooth="yes"/>
      <point x="198" y="1184" type="line"/>
      <point x="33" y="1184" type="line"/>
      <point x="33" y="1131" type="line"/>
      <point x="198" y="1131" type="line"/>
    </contour>
  </outline>
</glyph>
<glyph name="h" format="1">
  <advance width="772"/>
  <unicode hex="0068"/>
  <outline>
    <contour>
      <point x="118" y="0" type="line"/>
      <point x="196" y="0" type="line"/>
      <point x="196" y="999" type="line"/>
      <point x="270" y="1084"/>
      <point x="362" y="1143"/>
      <point x="450" y="1143" type="curve" smooth="yes"/>
      <point x="526" y="1143"/>
      <point x="583" y="1105"/>
      <point x="583" y="943" type="curve" smooth="yes"/>
      <point x="583" y="0" type="line"/>
      <point x="661" y="0" type="line"/>
      <point x="661" y="941" type="line" smooth="yes"/>
      <point x="661" y="1150"/>
      <point x="568" y="1204"/>
      <point x="473" y="1204" type="curve" smooth="yes"/>
      <point x="368" y="1204"/>
      <point x="269" y="1147"/>
      <point x="196" y="1057" type="curve"/>
      <point x="196" y="1658" type="line"/>
      <point x="118" y="1658" type="line"/>
    </contour>
  </outline>
</glyph>
<glyph name="w" format="1">
  <advance width="1148"/>
  <unicode hex="0077"/>
  <outline>
    <contour>
      <point x="267" y="0" type="line"/>
      <point x="369" y="0" type="line"/>
      <point x="579" y="1096" type="line"/>
      <point x="798" y="0" type="line"/>
      <point x="891" y="0" type="line"/>
      <point x="1078" y="1184" type="line"/>
      <point x="1005" y="1184" type="line"/>
      <point x="843" y="77" type="line"/>
      <point x="621" y="1184" type="line"/>
      <point x="534" y="1184" type="line"/>
      <point x="318" y="71" type="line"/>
      <point x="142" y="1184" type="line"/>
      <point x="70" y="1184" type="line"/>
    </contour>
  </outline>
</glyph>
<glyph name="y" format="1">
  <advance width="757"/>
  <unicode hex="0079"/>
  <outline>
    <contour>
      <point x="71" y="-294" type="line"/>
      <point x="122" y="-294" type="line"/>
      <point x="308" y="-294"/>
      <point x="386" y="-235"/>
      <point x="417" y="-106" type="curve" smooth="yes"/>
      <point x="706" y="1184" type="line"/>
      <point x="630" y="1184" type="line"/>
      <point x="386" y="48" type="line"/>
      <point x="131" y="1184" type="line"/>
      <point x="56" y="1184" type="line"/>
      <point x="62" y="1157"/>
      <point x="300" y="131"/>
      <point x="307" y="104" type="curve" smooth="yes"/>
      <point x="320" y="48"/>
      <point x="338" y="-24"/>
      <point x="339" y="-60" type="curve" smooth="yes"/>
      <point x="341" y="-162"/>
      <point x="315" y="-228"/>
      <point x="71" y="-228" type="curve"/>
    </contour>
  </outline>
</glyph>
<glyph name="braceleft" format="1">
  <advance width="436"/>
  <unicode hex="007B"/>
  <outline>
    <contour>
      <point x="403" y="-280" type="curve"/>
      <point x="403" y="-220" type="line"/>
      <point x="266" y="-220"/>
      <point x="266" y="-203"/>
      <point x="266" y="133" type="curve" smooth="yes"/>
      <point x="266" y="404" type="line" smooth="yes"/>
      <point x="266" y="609"/>
      <point x="245" y="677"/>
      <point x="162" y="705" type="curve"/>
      <point x="245" y="733"/>
      <point x="266" y="801"/>
      <point x="266" y="1006" type="curve" smooth="yes"/>
      <point x="266" y="1261" type="line" smooth="yes"/>
      <point x="266" y="1597"/>
      <point x="266" y="1614"/>
      <point x="403" y="1614" type="curve"/>
      <point x="403" y="1674" type="line"/>
      <point x="197" y="1674"/>
      <point x="194" y="1626"/>
      <point x="194" y="1261" type="curve" smooth="yes"/>
      <point x="194" y="1038" type="line" smooth="yes"/>
      <point x="194" y="814"/>
      <point x="175" y="744"/>
      <point x="75" y="744" type="curve"/>
      <point x="75" y="665" type="line"/>
      <point x="175" y="665"/>
      <point x="194" y="596"/>
      <point x="194" y="372" type="curve" smooth="yes"/>
      <point x="194" y="133" type="line" smooth="yes"/>
      <point x="194" y="-232"/>
      <point x="197" y="-280"/>
    </contour>
  </outline>
</glyph>
<glyph name="braceright" format="1">
  <advance width="439"/>
  <unicode hex="007D"/>
  <outline>
    <contour>
      <point x="36" y="-280" type="line"/>
      <point x="243" y="-280"/>
      <point x="246" y="-232"/>
      <point x="246" y="133" type="curve" smooth="yes"/>
      <point x="246" y="372" type="line" smooth="yes"/>
      <point x="246" y="596"/>
      <point x="265" y="665"/>
      <point x="365" y="665" type="curve"/>
      <point x="365" y="744" type="line"/>
      <point x="265" y="744"/>
      <point x="246" y="814"/>
      <point x="246" y="1038" type="curve" smooth="yes"/>
      <point x="246" y="1261" type="line" smooth="yes"/>
      <point x="246" y="1626"/>
      <point x="243" y="1674"/>
      <point x="36" y="1674" type="curve"/>
      <point x="36" y="1614" type="line"/>
      <point x="173" y="1614"/>
      <point x="173" y="1597"/>
      <point x="173" y="1261" type="curve" smooth="yes"/>
      <point x="173" y="1006" type="line" smooth="yes"/>
      <point x="173" y="801"/>
      <point x="194" y="733"/>
      <point x="277" y="705" type="curve"/>
      <point x="194" y="677"/>
      <point x="173" y="609"/>
      <point x="173" y="404" type="curve" smooth="yes"/>
      <point x="173" y="133" type="line" smooth="yes"/>
      <point x="173" y="-203"/>
      <point x="173" y="-220"/>
      <point x="36" y="-220" type="curve"/>
    </contour>
  </outline>
</glyph>
<glyph name="asciitilde" format="1">
  <advance width="746"/>
  <unicode hex="007E"/>
  <outline>
    <contour>
      <point x="504" y="792" type="curve" smooth="yes"/>
      <point x="550" y="792"/>
      <point x="597" y="824"/>
      <point x="660" y="885" type="curve"/>
      <point x="631" y="920" type="line"/>
      <point x="566" y="869"/>
      <point x="542" y="850"/>
      <point x="504" y="850" type="curve" smooth="yes"/>
      <point x="451" y="850"/>
      <point x="319" y="958"/>
      <point x="250" y="958" type="curve" smooth="yes"/>
      <point x="199" y="958"/>
      <point x="149" y="923"/>
      <point x="86" y="850" type="curve"/>
      <point x="115" y="816" type="line"/>
      <point x="182" y="881"/>
      <point x="221" y="902"/>
      <point x="246" y="902" type="curve" smooth="yes"/>
      <point x="304" y="902"/>
      <point x="432" y="792"/>
    </contour>
  </outline>
</glyph>
<glyph name="cent" format="1">
  <advance width="771"/>
  <unicode hex="00A2"/>
  <outline>
    <contour>
      <point x="344" y="-248" type="line"/>
      <point x="398" y="-248" type="line"/>
      <point x="398" y="-19" type="line"/>
      <point x="643" y="-12"/>
      <point x="661" y="178"/>
      <point x="661" y="409" type="curve" smooth="yes"/>
      <point x="661" y="442" type="line"/>
      <point x="585" y="442" type="line"/>
      <point x="585" y="409" type="line" smooth="yes"/>
      <point x="585" y="143"/>
      <point x="556" y="40"/>
      <point x="382" y="40" type="curve" smooth="yes"/>
      <point x="211" y="40"/>
      <point x="173" y="164"/>
      <point x="173" y="437" type="curve" smooth="yes"/>
      <point x="173" y="726" type="line" smooth="yes"/>
      <point x="173" y="1028"/>
      <point x="207" y="1144"/>
      <point x="381" y="1144" type="curve" smooth="yes"/>
      <point x="522" y="1144"/>
      <point x="585" y="1079"/>
      <point x="585" y="816" type="curve" smooth="yes"/>
      <point x="585" y="776" type="line"/>
      <point x="661" y="776" type="line"/>
      <point x="661" y="818" type="line" smooth="yes"/>
      <point x="661" y="1018"/>
      <point x="627" y="1188"/>
      <point x="411" y="1203" type="curve"/>
      <point x="411" y="1428" type="line"/>
      <point x="358" y="1428" type="line"/>
      <point x="358" y="1203" type="line"/>
      <point x="161" y="1194"/>
      <point x="95" y="1072"/>
      <point x="95" y="722" type="curve" smooth="yes"/>
      <point x="95" y="443" type="line" smooth="yes"/>
      <point x="95" y="205"/>
      <point x="120" y="2"/>
      <point x="344" y="-18" type="curve"/>
    </contour>
  </outline>
</glyph>
<glyph name="currency" format="1">
  <advance width="1027"/>
  <unicode hex="00A4"/>
  <outline>
    <contour>
      <point x="62" y="381" type="line"/>
      <point x="224" y="543" type="line"/>
      <point x="300" y="471"/>
      <point x="403" y="427"/>
      <point x="517" y="428" type="curve"/>
      <point x="631" y="427"/>
      <point x="734" y="471"/>
      <point x="810" y="543" type="curve"/>
      <point x="972" y="381" type="line"/>
      <point x="1002" y="411" type="line"/>
      <point x="839" y="573" type="line"/>
      <point x="908" y="650"/>
      <point x="950" y="754"/>
      <point x="950" y="866" type="curve" smooth="yes"/>
      <point x="950" y="979"/>
      <point x="908" y="1082"/>
      <point x="840" y="1159" type="curve"/>
      <point x="1002" y="1321" type="line"/>
      <point x="972" y="1351" type="line"/>
      <point x="810" y="1189" type="line"/>
      <point x="734" y="1261"/>
      <point x="631" y="1305"/>
      <point x="517" y="1304" type="curve"/>
      <point x="403" y="1305"/>
      <point x="300" y="1261"/>
      <point x="224" y="1189" type="curve"/>
      <point x="62" y="1351" type="line"/>
      <point x="32" y="1321" type="line"/>
      <point x="195" y="1159" type="line"/>
      <point x="126" y="1082"/>
      <point x="84" y="979"/>
      <point x="84" y="866" type="curve" smooth="yes"/>
      <point x="84" y="754"/>
      <point x="126" y="650"/>
      <point x="195" y="573" type="curve"/>
      <point x="32" y="411" type="line"/>
    </contour>
    <contour>
      <point x="517" y="478" type="curve" smooth="yes"/>
      <point x="304" y="478"/>
      <point x="140" y="653"/>
      <point x="140" y="866" type="curve" smooth="yes"/>
      <point x="140" y="1080"/>
      <point x="304" y="1254"/>
      <point x="517" y="1254" type="curve" smooth="yes"/>
      <point x="730" y="1254"/>
      <point x="893" y="1080"/>
      <point x="893" y="866" type="curve" smooth="yes"/>
      <point x="893" y="653"/>
      <point x="730" y="478"/>
    </contour>
  </outline>
</glyph>
<glyph name="copyright" format="1">
  <advance width="1765"/>
  <unicode hex="00A9"/>
  <outline>
    <contour>
      <point x="849" y="243" type="curve" smooth="yes"/>
      <point x="1139" y="243"/>
      <point x="1151" y="419"/>
      <point x="1151" y="678" type="curve" smooth="yes"/>
      <point x="1151" y="732" type="line"/>
      <point x="1076" y="732" type="line"/>
      <point x="1076" y="680" type="line" smooth="yes"/>
      <point x="1076" y="385"/>
      <point x="1043" y="308"/>
      <point x="850" y="308" type="curve" smooth="yes"/>
      <point x="661" y="308"/>
      <point x="614" y="428"/>
      <point x="614" y="730" type="curve" smooth="yes"/>
      <point x="614" y="986" type="line" smooth="yes"/>
      <point x="614" y="1322"/>
      <point x="655" y="1431"/>
      <point x="849" y="1431" type="curve" smooth="yes"/>
      <point x="1005" y="1431"/>
      <point x="1076" y="1390"/>
      <point x="1076" y="1099" type="curve" smooth="yes"/>
      <point x="1076" y="1045" type="line"/>
      <point x="1151" y="1045" type="line"/>
      <point x="1151" y="1101" type="line" smooth="yes"/>
      <point x="1151" y="1331"/>
      <point x="1119" y="1496"/>
      <point x="848" y="1496" type="curve" smooth="yes"/>
      <point x="609" y="1496"/>
      <point x="532" y="1384"/>
      <point x="532" y="982" type="curve" smooth="yes"/>
      <point x="532" y="736" type="line" smooth="yes"/>
      <point x="532" y="458"/>
      <point x="562" y="243"/>
    </contour>
    <contour>
      <point x="883" y="31" type="curve" smooth="yes"/>
      <point x="355" y="31"/>
      <point x="125" y="434"/>
      <point x="125" y="845" type="curve" smooth="yes"/>
      <point x="125" y="1257"/>
      <point x="355" y="1654"/>
      <point x="883" y="1654" type="curve" smooth="yes"/>
      <point x="1410" y="1654"/>
      <point x="1642" y="1257"/>
      <point x="1642" y="845" type="curve" smooth="yes"/>
      <point x="1642" y="434"/>
      <point x="1410" y="31"/>
    </contour>
    <contour>
      <point x="883" y="-22" type="curve" smooth="yes"/>
      <point x="1469" y="-22"/>
      <point x="1705" y="426"/>
      <point x="1705" y="843" type="curve" smooth="yes"/>
      <point x="1705" y="1260"/>
      <point x="1467" y="1708"/>
      <point x="883" y="1708" type="curve" smooth="yes"/>
      <point x="298" y="1708"/>
      <point x="60" y="1260"/>
      <point x="60" y="843" type="curve" smooth="yes"/>
      <point x="60" y="427"/>
      <point x="298" y="-22"/>
    </contour>
  </outline>
</glyph>
<glyph name="registered" format="1">
  <advance width="1770"/>
  <unicode hex="00AE"/>
  <outline>
    <contour>
      <point x="627" y="207" type="line"/>
      <point x="698" y="207" type="line"/>
      <point x="698" y="863" type="line"/>
      <point x="963" y="863" type="line"/>
      <point x="1174" y="207" type="line"/>
      <point x="1247" y="207" type="line"/>
      <point x="1031" y="872" type="line"/>
      <point x="1199" y="894"/>
      <point x="1240" y="1040"/>
      <point x="1240" y="1182" type="curve" smooth="yes"/>
      <point x="1240" y="1336"/>
      <point x="1196" y="1497"/>
      <point x="978" y="1497" type="curve" smooth="yes"/>
      <point x="627" y="1497" type="line"/>
    </contour>
    <contour>
      <point x="698" y="919" type="line"/>
      <point x="698" y="1437" type="line"/>
      <point x="970" y="1437" type="line" smooth="yes"/>
      <point x="1127" y="1437"/>
      <point x="1168" y="1345"/>
      <point x="1168" y="1183" type="curve" smooth="yes"/>
      <point x="1168" y="1028"/>
      <point x="1141" y="919"/>
      <point x="971" y="919" type="curve" smooth="yes"/>
    </contour>
    <contour>
      <point x="885" y="32" type="curve" smooth="yes"/>
      <point x="358" y="32"/>
      <point x="129" y="434"/>
      <point x="129" y="844" type="curve" smooth="yes"/>
      <point x="129" y="1254"/>
      <point x="358" y="1651"/>
      <point x="885" y="1651" type="curve" smooth="yes"/>
      <point x="1410" y="1651"/>
      <point x="1641" y="1254"/>
      <point x="1641" y="844" type="curve" smooth="yes"/>
      <point x="1641" y="434"/>
      <point x="1410" y="32"/>
    </contour>
    <contour>
      <point x="885" y="-22" type="curve" smooth="yes"/>
      <point x="1471" y="-22"/>
      <point x="1707" y="425"/>
      <point x="1707" y="842" type="curve" smooth="yes"/>
      <point x="1707" y="1258"/>
      <point x="1469" y="1706"/>
      <point x="885" y="1706" type="curve" smooth="yes"/>
      <point x="301" y="1706"/>
      <point x="63" y="1258"/>
      <point x="63" y="842" type="curve" smooth="yes"/>
      <point x="63" y="426"/>
      <point x="301" y="-22"/>
    </contour>
  </outline>
</glyph>
<glyph name="acute" format="1">
  <advance width="380"/>
  <unicode hex="00B4"/>
  <outline>
    <contour>
      <point x="79" y="1263" type="line"/>
      <point x="122" y="1263" type="line"/>
      <point x="294" y="1658" type="line"/>
      <point x="215" y="1658" type="line"/>
    </contour>
  </outline>
</glyph>
<glyph name="paragraph" format="1">
  <advance width="978"/>
  <unicode hex="00B6"/>
  <outline>
    <contour>
      <point x="413" y="-191" type="line"/>
      <point x="475" y="-191" type="line"/>
      <point x="475" y="1594" type="line"/>
      <point x="756" y="1594" type="line"/>
      <point x="756" y="-191" type="line"/>
      <point x="817" y="-191" type="line"/>
      <point x="817" y="1658" type="line"/>
      <point x="401" y="1658" type="line" smooth="yes"/>
      <point x="144" y="1658"/>
      <point x="51" y="1536"/>
      <point x="51" y="1384" type="curve" smooth="yes"/>
      <point x="51" y="1208"/>
      <point x="187" y="1114"/>
      <point x="413" y="1116" type="curve"/>
    </contour>
  </outline>
</glyph>
<glyph name="onesuperior" format="1">
  <advance width="780"/>
  <unicode hex="00B9"/>
  <outline>
    <contour>
      <point x="396" y="747" type="line"/>
      <point x="469" y="747" type="line"/>
      <point x="469" y="1758" type="line"/>
      <point x="400" y="1758" type="line"/>
      <point x="339" y="1666"/>
      <point x="277" y="1633"/>
      <point x="222" y="1612" type="curve"/>
      <point x="222" y="1554" type="line"/>
      <point x="283" y="1568"/>
      <point x="352" y="1599"/>
      <point x="396" y="1662" type="curve"/>
    </contour>
  </outline>
</glyph>
<glyph name="AE" format="1">
  <advance width="1285"/>
  <unicode hex="00C6"/>
  <outline>
    <contour>
      <point x="-10" y="0" type="line"/>
      <point x="95" y="0" type="line"/>
      <point x="265" y="469" type="line"/>
      <point x="658" y="469" type="line"/>
      <point x="658" y="0" type="line"/>
      <point x="1214" y="0" type="line"/>
      <point x="1214" y="77" type="line"/>
      <point x="745" y="77" type="line"/>
      <point x="745" y="834" type="line"/>
      <point x="1081" y="834" type="line"/>
      <point x="1081" y="903" type="line"/>
      <point x="745" y="903" type="line"/>
      <point x="745" y="1581" type="line"/>
      <point x="1214" y="1581" type="line"/>
      <point x="1214" y="1658" type="line"/>
      <point x="618" y="1658" type="line"/>
    </contour>
    <contour>
      <point x="288" y="537" type="line"/>
      <point x="656" y="1560" type="line"/>
      <point x="656" y="537" type="line"/>
    </contour>
  </outline>
</glyph>
<glyph name="multiply" format="1">
  <advance width="660"/>
  <unicode hex="00D7"/>
  <outline>
    <contour>
      <point x="109" y="526" type="line"/>
      <point x="330" y="748" type="line"/>
      <point x="551" y="526" type="line"/>
      <point x="595" y="570" type="line"/>
      <point x="373" y="791" type="line"/>
      <point x="595" y="1012" type="line"/>
      <point x="551" y="1054" type="line"/>
      <point x="330" y="834" type="line"/>
      <point x="109" y="1054" type="line"/>
      <point x="65" y="1012" type="line"/>
      <point x="287" y="791" type="line"/>
      <point x="65" y="570" type="line"/>
    </contour>
  </outline>
</glyph>
<glyph name="Thorn" format="1">
  <advance width="1035"/>
  <unicode hex="00DE"/>
  <outline>
    <contour>
      <point x="159" y="0" type="line"/>
      <point x="238" y="0" type="line"/>
      <point x="238" y="524" type="line"/>
      <point x="566" y="524" type="line" smooth="yes"/>
      <point x="901" y="524"/>
      <point x="959" y="811"/>
      <point x="959" y="1003" type="curve" smooth="yes"/>
      <point x="959" y="1227"/>
      <point x="867" y="1447"/>
      <point x="569" y="1447" type="curve" smooth="yes"/>
      <point x="238" y="1447" type="line"/>
      <point x="238" y="1658" type="line"/>
      <point x="159" y="1658" type="line"/>
    </contour>
    <contour>
      <point x="238" y="595" type="line"/>
      <point x="238" y="1377" type="line"/>
      <point x="565" y="1377" type="line" smooth="yes"/>
      <point x="747" y="1377"/>
      <point x="874" y="1271"/>
      <point x="874" y="997" type="curve" smooth="yes"/>
      <point x="874" y="721"/>
      <point x="772" y="595"/>
      <point x="560" y="595" type="curve" smooth="yes"/>
    </contour>
  </outline>
</glyph>
<glyph name="thorn" format="1">
  <advance width="787"/>
  <unicode hex="00FE"/>
  <outline>
    <contour>
      <point x="119" y="-390" type="line"/>
      <point x="197" y="-390" type="line"/>
      <point x="197" y="101" type="line"/>
      <point x="238" y="49"/>
      <point x="310" y="-20"/>
      <point x="418" y="-20" type="curve" smooth="yes"/>
      <point x="626" y="-20"/>
      <point x="691" y="139"/>
      <point x="691" y="492" type="curve" smooth="yes"/>
      <point x="691" y="703" type="line" smooth="yes"/>
      <point x="691" y="1043"/>
      <point x="635" y="1204"/>
      <point x="425" y="1204" type="curve" smooth="yes"/>
      <point x="313" y="1204"/>
      <point x="239" y="1138"/>
      <point x="197" y="1082" type="curve"/>
      <point x="197" y="1658" type="line"/>
      <point x="119" y="1658" type="line"/>
    </contour>
    <contour>
      <point x="414" y="41" type="curve" smooth="yes"/>
      <point x="322" y="41"/>
      <point x="246" y="99"/>
      <point x="197" y="163" type="curve"/>
      <point x="197" y="1019" type="line"/>
      <point x="240" y="1069"/>
      <point x="320" y="1143"/>
      <point x="418" y="1143" type="curve" smooth="yes"/>
      <point x="582" y="1143"/>
      <point x="613" y="1023"/>
      <point x="613" y="704" type="curve" smooth="yes"/>
      <point x="613" y="488" type="line" smooth="yes"/>
      <point x="613" y="166"/>
      <point x="572" y="41"/>
    </contour>
  </outline>
</glyph>
<glyph name="Hbar" format="1">
  <advance width="1098"/>
  <unicode hex="0126"/>
  <outline>
    <contour>
      <point x="158" y="0" type="line"/>
      <point x="237" y="0" type="line"/>
      <point x="237" y="840" type="line"/>
      <point x="861" y="840" type="line"/>
      <point x="861" y="0" type="line"/>
      <point x="940" y="0" type="line"/>
      <point x="940" y="1323" type="line"/>
      <point x="1011" y="1323" type="line"/>
      <point x="1011" y="1374" type="line"/>
      <point x="940" y="1374" type="line"/>
      <point x="940" y="1658" type="line"/>
      <point x="861" y="1658" type="line"/>
      <point x="861" y="1374" type="line"/>
      <point x="237" y="1374" type="line"/>
      <point x="237" y="1658" type="line"/>
      <point x="158" y="1658" type="line"/>
      <point x="158" y="1374" type="line"/>
      <point x="88" y="1374" type="line"/>
      <point x="88" y="1323" type="line"/>
      <point x="158" y="1323" type="line"/>
    </contour>
    <contour>
      <point x="237" y="902" type="line"/>
      <point x="237" y="1323" type="line"/>
      <point x="861" y="1323" type="line"/>
      <point x="861" y="902" type="line"/>
    </contour>
  </outline>
</glyph>
<glyph name="kgreenlandic" format="1">
  <advance width="830"/>
  <unicode hex="0138"/>
  <outline>
    <contour>
      <point x="134" y="0" type="line"/>
      <point x="211" y="0" type="line"/>
      <point x="211" y="448" type="line"/>
      <point x="368" y="667" type="line"/>
      <point x="667" y="0" type="line"/>
      <point x="747" y="0" type="line"/>
      <point x="425" y="718" type="line"/>
      <point x="740" y="1184" type="line"/>
      <point x="653" y="1184" type="line"/>
      <point x="211" y="537" type="line"/>
      <point x="211" y="1184" type="line"/>
      <point x="134" y="1184" type="line"/>
    </contour>
  </outline>
</glyph>
<glyph name="Lslash" format="1">
  <advance width="750"/>
  <unicode hex="0141"/>
  <outline>
    <contour>
      <point x="159" y="0" type="line"/>
      <point x="760" y="0" type="line"/>
      <point x="760" y="66" type="line"/>
      <point x="238" y="66" type="line"/>
      <point x="238" y="893" type="line"/>
      <point x="497" y="1025" type="line"/>
      <point x="497" y="1092" type="line"/>
      <point x="238" y="960" type="line"/>
      <point x="238" y="1658" type="line"/>
      <point x="159" y="1658" type="line"/>
      <point x="159" y="919" type="line"/>
      <point x="12" y="844" type="line"/>
      <point x="12" y="777" type="line"/>
      <point x="159" y="852" type="line"/>
    </contour>
  </outline>
</glyph>
<glyph name="Eng" format="1">
  <advance width="1104"/>
  <unicode hex="014A"/>
  <outline>
    <contour>
      <point x="596" y="-263" type="line"/>
      <point x="653" y="-263" type="line" smooth="yes"/>
      <point x="844" y="-263"/>
      <point x="889" y="-172"/>
      <point x="889" y="0" type="curve" smooth="yes"/>
      <point x="889" y="1658" type="line"/>
      <point x="818" y="1658" type="line"/>
      <point x="818" y="174" type="line"/>
      <point x="230" y="1658" type="line"/>
      <point x="159" y="1658" type="line"/>
      <point x="159" y="0" type="line"/>
      <point x="230" y="0" type="line"/>
      <point x="230" y="1478" type="line"/>
      <point x="815" y="8" type="line"/>
      <point x="815" y="-42" type="line" smooth="yes"/>
      <point x="815" y="-166"/>
      <point x="772" y="-211"/>
      <point x="596" y="-208" type="curve"/>
    </contour>
  </outline>
</glyph>
<glyph name="uni0237" format="1">
  <advance width="398"/>
  <unicode hex="0237"/>
  <outline>
    <contour>
      <point x="-30" y="-323" type="line"/>
      <point x="-27" y="-324"/>
      <point x="13" y="-324"/>
      <point x="17" y="-324" type="curve" smooth="yes"/>
      <point x="163" y="-324"/>
      <point x="250" y="-264"/>
      <point x="250" y="-73" type="curve" smooth="yes"/>
      <point x="250" y="1184" type="line"/>
      <point x="172" y="1184" type="line"/>
      <point x="172" y="-70" type="line" smooth="yes"/>
      <point x="172" y="-158"/>
      <point x="171" y="-257"/>
      <point x="14" y="-257" type="curve" smooth="yes"/>
      <point x="13" y="-257"/>
      <point x="-29" y="-256"/>
      <point x="-30" y="-256" type="curve"/>
    </contour>
  </outline>
</glyph>
<glyph name="ring" format="1">
  <advance width="588"/>
  <unicode hex="02DA"/>
  <outline>
    <contour>
      <point x="294" y="1360" type="curve" smooth="yes"/>
      <point x="365" y="1360"/>
      <point x="456" y="1401"/>
      <point x="456" y="1519" type="curve" smooth="yes"/>
      <point x="456" y="1637"/>
      <point x="366" y="1678"/>
      <point x="294" y="1678" type="curve" smooth="yes"/>
      <point x="222" y="1678"/>
      <point x="133" y="1637"/>
      <point x="133" y="1519" type="curve" smooth="yes"/>
      <point x="133" y="1401"/>
      <point x="223" y="1360"/>
    </contour>
    <contour>
      <point x="295" y="1409" type="curve" smooth="yes"/>
      <point x="245" y="1409"/>
      <point x="189" y="1437"/>
      <point x="189" y="1519" type="curve" smooth="yes"/>
      <point x="189" y="1602"/>
      <point x="244" y="1630"/>
      <point x="294" y="1630" type="curve" smooth="yes"/>
      <point x="345" y="1630"/>
      <point x="401" y="1602"/>
      <point x="401" y="1519" type="curve" smooth="yes"/>
      <point x="401" y="1437"/>
      <point x="345" y="1409"/>
    </contour>
  </outline>
</glyph>
<glyph name="hungarumlaut" format="1">
  <advance width="523"/>
  <unicode hex="02DD"/>
  <outline>
    <contour>
      <point x="131" y="1381" type="line"/>
      <point x="177" y="1381" type="line"/>
      <point x="298" y="1686" type="line"/>
      <point x="208" y="1686" type="line"/>
    </contour>
    <contour>
      <point x="290" y="1381" type="line"/>
      <point x="339" y="1381" type="line"/>
      <point x="500" y="1686" type="line"/>
      <point x="400" y="1686" type="line"/>
    </contour>
  </outline>
</glyph>
<glyph name="tildecomb" format="1">
  <advance width="709"/>
  <unicode hex="0303"/>
  <outline>
    <contour>
      <point x="425" y="1510" type="curve" smooth="yes"/>
      <point x="566" y="1493"/>
      <point x="575" y="1632"/>
      <point x="575" y="1658" type="curve"/>
      <point x="519" y="1658" type="line"/>
      <point x="517" y="1587"/>
      <point x="485" y="1557"/>
      <point x="431" y="1566" type="curve" smooth="yes"/>
      <point x="387" y="1573"/>
      <point x="333" y="1646"/>
      <point x="275" y="1657" type="curve" smooth="yes"/>
      <point x="139" y="1685"/>
      <point x="125" y="1537"/>
      <point x="125" y="1523" type="curve"/>
      <point x="186" y="1523" type="line"/>
      <point x="186" y="1586"/>
      <point x="223" y="1614"/>
      <point x="268" y="1601" type="curve" smooth="yes"/>
      <point x="311" y="1590"/>
      <point x="363" y="1518"/>
    </contour>
  </outline>
</glyph>
<glyph name="uni0306" format="1">
  <advance width="741"/>
  <unicode hex="0306"/>
  <outline>
    <contour>
      <point x="372" y="1452" type="curve" smooth="yes"/>
      <point x="487" y="1452"/>
      <point x="591" y="1507"/>
      <point x="599" y="1658" type="curve"/>
      <point x="539" y="1658" type="line"/>
      <point x="530" y="1544"/>
      <point x="452" y="1507"/>
      <point x="371" y="1507" type="curve" smooth="yes"/>
      <point x="290" y="1507"/>
      <point x="214" y="1544"/>
      <point x="210" y="1658" type="curve"/>
      <point x="149" y="1658" type="line"/>
      <point x="158" y="1507"/>
      <point x="257" y="1452"/>
    </contour>
  </outline>
</glyph>
<glyph name="uni030F" format="1">
  <advance width="537"/>
  <unicode hex="030F"/>
  <outline>
    <contour>
      <point x="225" y="1372" type="line"/>
      <point x="267" y="1372" type="line"/>
      <point x="155" y="1658" type="line"/>
      <point x="62" y="1658" type="line"/>
    </contour>
    <contour>
      <point x="407" y="1372" type="line"/>
      <point x="446" y="1372" type="line"/>
      <point x="359" y="1658" type="line"/>
      <point x="273" y="1658" type="line"/>
    </contour>
  </outline>
</glyph>
<glyph name="uni0326" format="1">
  <advance width="484"/>
  <unicode hex="0326"/>
  <outline>
    <contour>
      <point x="192" y="-433" type="line"/>
      <point x="270" y="-377"/>
      <point x="296" y="-314"/>
      <point x="296" y="-193" type="curve" smooth="yes"/>
      <point x="296" y="-88" type="line"/>
      <point x="188" y="-88" type="line"/>
      <point x="188" y="-222" type="line"/>
      <point x="249" y="-222" type="line"/>
      <point x="249" y="-257"/>
      <point x="241" y="-350"/>
      <point x="173" y="-408" type="curve"/>
    </contour>
  </outline>
</glyph>
<glyph name="afii10051" format="1">
  <advance width="956"/>
  <unicode hex="0402"/>
  <outline>
    <contour>
      <point x="476" y="0" type="line"/>
      <point x="490" y="0" type="line" smooth="yes"/>
      <point x="737" y="0"/>
      <point x="861" y="112"/>
      <point x="861" y="360" type="curve" smooth="yes"/>
      <point x="861" y="675" type="line" smooth="yes"/>
      <point x="861" y="899"/>
      <point x="711" y="982"/>
      <point x="564" y="982" type="curve" smooth="yes"/>
      <point x="469" y="982"/>
      <point x="375" y="946"/>
      <point x="326" y="894" type="curve"/>
      <point x="326" y="1592" type="line"/>
      <point x="661" y="1592" type="line"/>
      <point x="661" y="1658" type="line"/>
      <point x="-75" y="1658" type="line"/>
      <point x="-75" y="1592" type="line"/>
      <point x="247" y="1592" type="line"/>
      <point x="247" y="0" type="line"/>
      <point x="326" y="0" type="line"/>
      <point x="326" y="835" type="line"/>
      <point x="389" y="887"/>
      <point x="475" y="919"/>
      <point x="555" y="919" type="curve" smooth="yes"/>
      <point x="677" y="919"/>
      <point x="782" y="847"/>
      <point x="782" y="681" type="curve" smooth="yes"/>
      <point x="782" y="362" type="line" smooth="yes"/>
      <point x="782" y="159"/>
      <point x="705" y="64"/>
      <point x="476" y="64" type="curve"/>
    </contour>
  </outline>
</glyph>
<glyph name="afii10053" format="1">
  <advance width="976"/>
  <unicode hex="0404"/>
  <outline>
    <contour>
      <point x="517" y="-23" type="curve" smooth="yes"/>
      <point x="807" y="-23"/>
      <point x="884" y="179"/>
      <point x="884" y="457" type="curve" smooth="yes"/>
      <point x="884" y="521" type="line"/>
      <point x="810" y="521" type="line"/>
      <point x="810" y="433" type="line" smooth="yes"/>
      <point x="810" y="198"/>
      <point x="747" y="44"/>
      <point x="517" y="44" type="curve" smooth="yes"/>
      <point x="266" y="44"/>
      <point x="203" y="207"/>
      <point x="203" y="450" type="curve" smooth="yes"/>
      <point x="203" y="849" type="line"/>
      <point x="634" y="849" type="line"/>
      <point x="634" y="911" type="line"/>
      <point x="203" y="911" type="line"/>
      <point x="203" y="1206" type="line" smooth="yes"/>
      <point x="203" y="1446"/>
      <point x="263" y="1612"/>
      <point x="517" y="1612" type="curve" smooth="yes"/>
      <point x="740" y="1612"/>
      <point x="810" y="1469"/>
      <point x="810" y="1219" type="curve" smooth="yes"/>
      <point x="810" y="1149" type="line"/>
      <point x="884" y="1149" type="line"/>
      <point x="884" y="1213" type="line" smooth="yes"/>
      <point x="884" y="1491"/>
      <point x="799" y="1678"/>
      <point x="517" y="1678" type="curve" smooth="yes"/>
      <point x="207" y="1678"/>
      <point x="124" y="1470"/>
      <point x="124" y="1198" type="curve" smooth="yes"/>
      <point x="124" y="463" type="line" smooth="yes"/>
      <point x="124" y="194"/>
      <point x="196" y="-23"/>
    </contour>
  </outline>
</glyph>
<glyph name="afii10054" format="1">
  <advance width="895"/>
  <unicode hex="0405"/>
  <outline>
    <contour>
      <point x="476" y="-23" type="curve" smooth="yes"/>
      <point x="689" y="-23"/>
      <point x="840" y="85"/>
      <point x="840" y="335" type="curve" smooth="yes"/>
      <point x="840" y="503"/>
      <point x="726" y="651"/>
      <point x="592" y="787" type="curve" smooth="yes"/>
      <point x="287" y="1096" type="line" smooth="yes"/>
      <point x="192" y="1193"/>
      <point x="162" y="1274"/>
      <point x="162" y="1354" type="curve" smooth="yes"/>
      <point x="162" y="1537"/>
      <point x="287" y="1613"/>
      <point x="450" y="1613" type="curve" smooth="yes"/>
      <point x="655" y="1614"/>
      <point x="735" y="1504"/>
      <point x="758" y="1252" type="curve"/>
      <point x="823" y="1265" type="line"/>
      <point x="806" y="1586"/>
      <point x="662" y="1678"/>
      <point x="446" y="1678" type="curve" smooth="yes"/>
      <point x="236" y="1677"/>
      <point x="90" y="1564"/>
      <point x="90" y="1349" type="curve" smooth="yes"/>
      <point x="90" y="1258"/>
      <point x="130" y="1152"/>
      <point x="229" y="1050" type="curve" smooth="yes"/>
      <point x="540" y="733" type="line" smooth="yes"/>
      <point x="685" y="586"/>
      <point x="767" y="476"/>
      <point x="767" y="332" type="curve" smooth="yes"/>
      <point x="767" y="124"/>
      <point x="655" y="45"/>
      <point x="478" y="45" type="curve" smooth="yes"/>
      <point x="251" y="45"/>
      <point x="188" y="186"/>
      <point x="155" y="417" type="curve"/>
      <point x="86" y="394" type="line"/>
      <point x="110" y="139"/>
      <point x="221" y="-23"/>
    </contour>
  </outline>
</glyph>
<glyph name="afii10058" format="1">
  <advance width="1643"/>
  <unicode hex="0409"/>
  <outline>
    <contour>
      <point x="48" y="-6" type="line"/>
      <point x="68" y="-7" type="line" smooth="yes"/>
      <point x="346" y="-8"/>
      <point x="352" y="172"/>
      <point x="399" y="707" type="curve" smooth="yes"/>
      <point x="475" y="1595" type="line"/>
      <point x="875" y="1595" type="line"/>
      <point x="875" y="0" type="line"/>
      <point x="1172" y="0" type="line" smooth="yes"/>
      <point x="1484" y="0"/>
      <point x="1589" y="209"/>
      <point x="1589" y="465" type="curve" smooth="yes"/>
      <point x="1589" y="775"/>
      <point x="1461" y="957"/>
      <point x="1170" y="957" type="curve" smooth="yes"/>
      <point x="953" y="957" type="line"/>
      <point x="953" y="1658" type="line"/>
      <point x="399" y="1658" type="line"/>
      <point x="322" y="707" type="line" smooth="yes"/>
      <point x="278" y="182"/>
      <point x="281" y="58"/>
      <point x="48" y="59" type="curve"/>
    </contour>
    <contour>
      <point x="953" y="70" type="line"/>
      <point x="953" y="887" type="line"/>
      <point x="1176" y="887" type="line" smooth="yes"/>
      <point x="1422" y="887"/>
      <point x="1506" y="720"/>
      <point x="1506" y="468" type="curve" smooth="yes"/>
      <point x="1506" y="228"/>
      <point x="1428" y="70"/>
      <point x="1176" y="70" type="curve" smooth="yes"/>
    </contour>
  </outline>
</glyph>
<glyph name="afii10021" format="1">
  <advance width="1120"/>
  <unicode hex="0414"/>
  <outline>
    <contour>
      <point x="17" y="-267" type="line"/>
      <point x="83" y="-267" type="line"/>
      <point x="91" y="0" type="line"/>
      <point x="980" y="0" type="line"/>
      <point x="991" y="-267" type="line"/>
      <point x="1055" y="-267" type="line"/>
      <point x="1055" y="65" type="line"/>
      <point x="944" y="65" type="line"/>
      <point x="944" y="1658" type="line"/>
      <point x="393" y="1658" type="line"/>
      <point x="345" y="1073" type="line" smooth="yes"/>
      <point x="270" y="147"/>
      <point x="217" y="149"/>
      <point x="71" y="65" type="curve"/>
      <point x="17" y="65" type="line"/>
    </contour>
    <contour>
      <point x="172" y="65" type="line"/>
      <point x="284" y="130"/>
      <point x="344" y="137"/>
      <point x="423" y="1062" type="curve" smooth="yes"/>
      <point x="469" y="1595" type="line"/>
      <point x="865" y="1595" type="line"/>
      <point x="865" y="65" type="line"/>
    </contour>
  </outline>
</glyph>
<glyph name="afii10025" format="1">
  <advance width="930"/>
  <unicode hex="0417"/>
  <outline>
    <contour>
      <point x="486" y="-23" type="curve" smooth="yes"/>
      <point x="757" y="-23"/>
      <point x="863" y="168"/>
      <point x="863" y="436" type="curve" smooth="yes"/>
      <point x="863" y="739"/>
      <point x="714" y="839"/>
      <point x="620" y="859" type="curve"/>
      <point x="752" y="881"/>
      <point x="863" y="1009"/>
      <point x="863" y="1275" type="curve" smooth="yes"/>
      <point x="863" y="1497"/>
      <point x="757" y="1678"/>
      <point x="508" y="1678" type="curve" smooth="yes"/>
      <point x="230" y="1678"/>
      <point x="147" y="1525"/>
      <point x="147" y="1303" type="curve" smooth="yes"/>
      <point x="147" y="1283" type="line"/>
      <point x="217" y="1283" type="line"/>
      <point x="217" y="1285"/>
      <point x="217" y="1306"/>
      <point x="217" y="1307" type="curve" smooth="yes"/>
      <point x="218" y="1544"/>
      <point x="325" y="1616"/>
      <point x="509" y="1616" type="curve" smooth="yes"/>
      <point x="708" y="1616"/>
      <point x="781" y="1473"/>
      <point x="781" y="1277" type="curve" smooth="yes"/>
      <point x="781" y="1013"/>
      <point x="700" y="890"/>
      <point x="489" y="889" type="curve" smooth="yes"/>
      <point x="487" y="889"/>
      <point x="375" y="889"/>
      <point x="373" y="889" type="curve"/>
      <point x="373" y="833" type="line"/>
      <point x="375" y="833"/>
      <point x="488" y="833"/>
      <point x="489" y="833" type="curve" smooth="yes"/>
      <point x="699" y="831"/>
      <point x="781" y="666"/>
      <point x="781" y="432" type="curve" smooth="yes"/>
      <point x="781" y="106"/>
      <point x="637" y="39"/>
      <point x="486" y="39" type="curve" smooth="yes"/>
      <point x="307" y="39"/>
      <point x="224" y="145"/>
      <point x="224" y="348" type="curve" smooth="yes"/>
      <point x="224" y="350"/>
      <point x="224" y="379"/>
      <point x="224" y="381" type="curve"/>
      <point x="154" y="381" type="line"/>
      <point x="154" y="357" type="line" smooth="yes"/>
      <point x="154" y="132"/>
      <point x="240" y="-23"/>
    </contour>
  </outline>
</glyph>
<glyph name="afii10026" format="1">
  <advance width="1049"/>
  <unicode hex="0418"/>
  <outline>
    <contour>
      <point x="158" y="0" type="line"/>
      <point x="231" y="0" type="line"/>
      <point x="820" y="1481" type="line"/>
      <point x="820" y="0" type="line"/>
      <point x="891" y="0" type="line"/>
      <point x="891" y="1658" type="line"/>
      <point x="820" y="1658" type="line"/>
      <point x="229" y="170" type="line"/>
      <point x="229" y="1658" type="line"/>
      <point x="158" y="1658" type="line"/>
    </contour>
  </outline>
</glyph>
<glyph name="afii10029" format="1">
  <advance width="1128"/>
  <unicode hex="041B"/>
  <outline>
    <contour>
      <point x="64" y="-6" type="line"/>
      <point x="379" y="12"/>
      <point x="359" y="68"/>
      <point x="451" y="1114" type="curve" smooth="yes"/>
      <point x="492" y="1595" type="line"/>
      <point x="891" y="1595" type="line"/>
      <point x="891" y="0" type="line"/>
      <point x="970" y="0" type="line"/>
      <point x="970" y="1658" type="line"/>
      <point x="416" y="1658" type="line"/>
      <point x="371" y="1116" type="line" smooth="yes"/>
      <point x="285" y="81"/>
      <point x="303" y="77"/>
      <point x="64" y="59" type="curve"/>
    </contour>
  </outline>
</glyph>
<glyph name="afii10033" format="1">
  <advance width="1100"/>
  <unicode hex="041F"/>
  <outline>
    <contour>
      <point x="159" y="0" type="line"/>
      <point x="238" y="0" type="line"/>
      <point x="238" y="1596" type="line"/>
      <point x="862" y="1596" type="line"/>
      <point x="862" y="0" type="line"/>
      <point x="941" y="0" type="line"/>
      <point x="941" y="1658" type="line"/>
      <point x="159" y="1658" type="line"/>
    </contour>
  </outline>
</glyph>
<glyph name="afii10036" format="1">
  <advance width="750"/>
  <unicode hex="0422"/>
  <outline>
    <contour>
      <point x="374" y="0" type="line"/>
      <point x="453" y="0" type="line"/>
      <point x="453" y="1592" type="line"/>
      <point x="812" y="1592" type="line"/>
      <point x="812" y="1658" type="line"/>
      <point x="10" y="1658" type="line"/>
      <point x="10" y="1592" type="line"/>
      <point x="374" y="1592" type="line"/>
    </contour>
  </outline>
</glyph>
<glyph name="afii10042" format="1">
  <advance width="1408"/>
  <unicode hex="0428"/>
  <outline>
    <contour>
      <point x="159" y="0" type="line"/>
      <point x="1249" y="0" type="line"/>
      <point x="1249" y="1658" type="line"/>
      <point x="1170" y="1658" type="line"/>
      <point x="1170" y="62" type="line"/>
      <point x="752" y="62" type="line"/>
      <point x="752" y="1658" type="line"/>
      <point x="673" y="1658" type="line"/>
      <point x="673" y="62" type="line"/>
      <point x="238" y="62" type="line"/>
      <point x="238" y="1658" type="line"/>
      <point x="159" y="1658" type="line"/>
    </contour>
  </outline>
</glyph>
<glyph name="afii10046" format="1">
  <advance width="925"/>
  <unicode hex="042C"/>
  <outline>
    <contour>
      <point x="159" y="0" type="line"/>
      <point x="460" y="0" type="line" smooth="yes"/>
      <point x="771" y="0"/>
      <point x="877" y="209"/>
      <point x="877" y="465" type="curve" smooth="yes"/>
      <point x="877" y="775"/>
      <point x="748" y="957"/>
      <point x="458" y="957" type="curve" smooth="yes"/>
      <point x="238" y="957" type="line"/>
      <point x="238" y="1658" type="line"/>
      <point x="159" y="1658" type="line"/>
    </contour>
    <contour>
      <point x="238" y="70" type="line"/>
      <point x="238" y="887" type="line"/>
      <point x="463" y="887" type="line" smooth="yes"/>
      <point x="710" y="887"/>
      <point x="794" y="720"/>
      <point x="794" y="468" type="curve" smooth="yes"/>
      <point x="794" y="228"/>
      <point x="716" y="70"/>
      <point x="463" y="70" type="curve" smooth="yes"/>
    </contour>
  </outline>
</glyph>
<glyph name="afii10047" format="1">
  <advance width="1007"/>
  <unicode hex="042D"/>
  <outline>
    <contour>
      <point x="491" y="-21" type="curve" smooth="yes"/>
      <point x="801" y="-21"/>
      <point x="884" y="186"/>
      <point x="884" y="458" type="curve" smooth="yes"/>
      <point x="884" y="1193" type="line" smooth="yes"/>
      <point x="884" y="1462"/>
      <point x="812" y="1680"/>
      <point x="491" y="1680" type="curve" smooth="yes"/>
      <point x="200" y="1680"/>
      <point x="124" y="1477"/>
      <point x="124" y="1200" type="curve" smooth="yes"/>
      <point x="124" y="1135" type="line"/>
      <point x="198" y="1135" type="line"/>
      <point x="198" y="1223" type="line" smooth="yes"/>
      <point x="198" y="1459"/>
      <point x="261" y="1613"/>
      <point x="491" y="1613" type="curve" smooth="yes"/>
      <point x="742" y="1613"/>
      <point x="805" y="1449"/>
      <point x="805" y="1206" type="curve" smooth="yes"/>
      <point x="805" y="884" type="line"/>
      <point x="384" y="884" type="line"/>
      <point x="384" y="823" type="line"/>
      <point x="805" y="823" type="line"/>
      <point x="805" y="451" type="line" smooth="yes"/>
      <point x="805" y="210"/>
      <point x="745" y="45"/>
      <point x="491" y="45" type="curve" smooth="yes"/>
      <point x="267" y="45"/>
      <point x="198" y="187"/>
      <point x="198" y="437" type="curve" smooth="yes"/>
      <point x="198" y="509" type="line"/>
      <point x="124" y="509" type="line"/>
      <point x="124" y="443" type="line" smooth="yes"/>
      <point x="124" y="166"/>
      <point x="209" y="-21"/>
    </contour>
  </outline>
</glyph>
<glyph name="afii10048" format="1">
  <advance width="1339"/>
  <unicode hex="042E"/>
  <outline>
    <contour>
      <point x="812" y="-23" type="curve" smooth="yes"/>
      <point x="1130" y="-23"/>
      <point x="1215" y="184"/>
      <point x="1215" y="455" type="curve" smooth="yes"/>
      <point x="1215" y="1206" type="line" smooth="yes"/>
      <point x="1215" y="1474"/>
      <point x="1119" y="1678"/>
      <point x="812" y="1678" type="curve" smooth="yes"/>
      <point x="505" y="1678"/>
      <point x="408" y="1480"/>
      <point x="408" y="1208" type="curve" smooth="yes"/>
      <point x="408" y="867" type="line"/>
      <point x="237" y="867" type="line"/>
      <point x="237" y="1658" type="line"/>
      <point x="159" y="1658" type="line"/>
      <point x="159" y="0" type="line"/>
      <point x="237" y="0" type="line"/>
      <point x="237" y="800" type="line"/>
      <point x="408" y="800" type="line"/>
      <point x="408" y="458" type="line" smooth="yes"/>
      <point x="408" y="188"/>
      <point x="493" y="-23"/>
    </contour>
    <contour>
      <point x="816" y="44" type="curve" smooth="yes"/>
      <point x="557" y="44"/>
      <point x="485" y="204"/>
      <point x="485" y="441" type="curve" smooth="yes"/>
      <point x="485" y="1217" type="line" smooth="yes"/>
      <point x="485" y="1454"/>
      <point x="559" y="1612"/>
      <point x="812" y="1612" type="curve" smooth="yes"/>
      <point x="1064" y="1612"/>
      <point x="1139" y="1453"/>
      <point x="1139" y="1217" type="curve" smooth="yes"/>
      <point x="1139" y="441" type="line" smooth="yes"/>
      <point x="1139" y="205"/>
      <point x="1067" y="44"/>
    </contour>
  </outline>
</glyph>
<glyph name="afii10049" format="1">
  <advance width="1068"/>
  <unicode hex="042F"/>
  <outline>
    <contour>
      <point x="54" y="0" type="line"/>
      <point x="140" y="0" type="line"/>
      <point x="451" y="739" type="line"/>
      <point x="478" y="735"/>
      <point x="510" y="732"/>
      <point x="541" y="732" type="curve"/>
      <point x="831" y="732" type="line"/>
      <point x="831" y="0" type="line"/>
      <point x="910" y="0" type="line"/>
      <point x="910" y="1658" type="line"/>
      <point x="542" y="1658" type="line" smooth="yes"/>
      <point x="229" y="1658"/>
      <point x="144" y="1445"/>
      <point x="144" y="1218" type="curve" smooth="yes"/>
      <point x="144" y="1005"/>
      <point x="204" y="818"/>
      <point x="379" y="758" type="curve"/>
    </contour>
    <contour>
      <point x="545" y="796" type="line"/>
      <point x="312" y="796"/>
      <point x="223" y="941"/>
      <point x="223" y="1217" type="curve" smooth="yes"/>
      <point x="223" y="1489"/>
      <point x="341" y="1593"/>
      <point x="542" y="1593" type="curve" smooth="yes"/>
      <point x="831" y="1593" type="line"/>
      <point x="831" y="796" type="line"/>
    </contour>
  </outline>
</glyph>
<glyph name="afii10072" format="1">
  <advance width="996"/>
  <unicode hex="0436"/>
  <outline>
    <contour>
      <point x="8" y="0" type="line"/>
      <point x="83" y="0" type="line"/>
      <point x="443" y="593" type="line"/>
      <point x="466" y="593" type="line"/>
      <point x="466" y="0" type="line"/>
      <point x="533" y="0" type="line"/>
      <point x="533" y="593" type="line"/>
      <point x="553" y="593" type="line"/>
      <point x="912" y="0" type="line"/>
      <point x="988" y="0" type="line"/>
      <point x="615" y="609" type="line"/>
      <point x="969" y="1184" type="line"/>
      <point x="896" y="1184" type="line"/>
      <point x="552" y="619" type="line"/>
      <point x="533" y="619" type="line"/>
      <point x="533" y="1184" type="line"/>
      <point x="466" y="1184" type="line"/>
      <point x="466" y="619" type="line"/>
      <point x="445" y="619" type="line"/>
      <point x="99" y="1184" type="line"/>
      <point x="25" y="1184" type="line"/>
      <point x="381" y="609" type="line"/>
    </contour>
  </outline>
</glyph>
<glyph name="afii10073" format="1">
  <advance width="724"/>
  <unicode hex="0437"/>
  <outline>
    <contour>
      <point x="361" y="-20" type="curve" smooth="yes"/>
      <point x="543" y="-23"/>
      <point x="652" y="109"/>
      <point x="647" y="316" type="curve" smooth="yes"/>
      <point x="644" y="491"/>
      <point x="558" y="580"/>
      <point x="441" y="619" type="curve"/>
      <point x="557" y="641"/>
      <point x="638" y="733"/>
      <point x="643" y="876" type="curve" smooth="yes"/>
      <point x="648" y="1052"/>
      <point x="563" y="1204"/>
      <point x="370" y="1204" type="curve" smooth="yes"/>
      <point x="192" y="1204"/>
      <point x="85" y="1100"/>
      <point x="85" y="905" type="curve"/>
      <point x="159" y="905" type="line"/>
      <point x="159" y="1057"/>
      <point x="241" y="1144"/>
      <point x="370" y="1144" type="curve" smooth="yes"/>
      <point x="514" y="1144"/>
      <point x="577" y="1010"/>
      <point x="567" y="872" type="curve" smooth="yes"/>
      <point x="559" y="743"/>
      <point x="505" y="650"/>
      <point x="313" y="650" type="curve"/>
      <point x="313" y="585" type="line"/>
      <point x="496" y="585"/>
      <point x="567" y="468"/>
      <point x="572" y="318" type="curve" smooth="yes"/>
      <point x="577" y="135"/>
      <point x="497" y="38"/>
      <point x="361" y="39" type="curve" smooth="yes"/>
      <point x="219" y="41"/>
      <point x="163" y="141"/>
      <point x="163" y="300" type="curve"/>
      <point x="87" y="300" type="line"/>
      <point x="87" y="98"/>
      <point x="185" y="-17"/>
    </contour>
  </outline>
</glyph>
<glyph name="afii10078" format="1">
  <advance width="943"/>
  <unicode hex="043C"/>
  <outline>
    <contour>
      <point x="108" y="0" type="line"/>
      <point x="178" y="0" type="line"/>
      <point x="183" y="961" type="line"/>
      <point x="457" y="128" type="line"/>
      <point x="483" y="128" type="line"/>
      <point x="759" y="964" type="line"/>
      <point x="765" y="0" type="line"/>
      <point x="835" y="0" type="line"/>
      <point x="828" y="1184" type="line"/>
      <point x="760" y="1184" type="line"/>
      <point x="470" y="278" type="line"/>
      <point x="179" y="1184" type="line"/>
      <point x="117" y="1184" type="line"/>
    </contour>
  </outline>
</glyph>
<glyph name="afii10081" format="1">
  <advance width="811"/>
  <unicode hex="043F"/>
  <outline>
    <contour>
      <point x="117" y="0" type="line"/>
      <point x="195" y="0" type="line"/>
      <point x="195" y="1119" type="line"/>
      <point x="615" y="1119" type="line"/>
      <point x="615" y="0" type="line"/>
      <point x="693" y="0" type="line"/>
      <point x="693" y="1184" type="line"/>
      <point x="117" y="1184" type="line"/>
    </contour>
  </outline>
</glyph>
<glyph name="afii10083" format="1">
  <advance width="752"/>
  <unicode hex="0441"/>
  <outline>
    <contour>
      <point x="382" y="-20" type="curve" smooth="yes"/>
      <point x="642" y="-20"/>
      <point x="661" y="173"/>
      <point x="661" y="409" type="curve" smooth="yes"/>
      <point x="661" y="442" type="line"/>
      <point x="585" y="442" type="line"/>
      <point x="585" y="409" type="line" smooth="yes"/>
      <point x="585" y="143"/>
      <point x="556" y="40"/>
      <point x="382" y="40" type="curve" smooth="yes"/>
      <point x="211" y="40"/>
      <point x="173" y="164"/>
      <point x="173" y="437" type="curve" smooth="yes"/>
      <point x="173" y="726" type="line" smooth="yes"/>
      <point x="173" y="1028"/>
      <point x="207" y="1144"/>
      <point x="381" y="1144" type="curve" smooth="yes"/>
      <point x="522" y="1144"/>
      <point x="585" y="1079"/>
      <point x="585" y="816" type="curve" smooth="yes"/>
      <point x="585" y="776" type="line"/>
      <point x="661" y="776" type="line"/>
      <point x="661" y="818" type="line" smooth="yes"/>
      <point x="661" y="1026"/>
      <point x="625" y="1204"/>
      <point x="381" y="1204" type="curve" smooth="yes"/>
      <point x="165" y="1204"/>
      <point x="95" y="1084"/>
      <point x="95" y="722" type="curve" smooth="yes"/>
      <point x="95" y="443" type="line" smooth="yes"/>
      <point x="95" y="192"/>
      <point x="123" y="-20"/>
    </contour>
  </outline>
</glyph>
<glyph name="afii10097" format="1">
  <advance width="762"/>
  <unicode hex="044F"/>
  <outline>
    <contour>
      <point x="45" y="0" type="line"/>
      <point x="128" y="0" type="line"/>
      <point x="358" y="500" type="line"/>
      <point x="407" y="492"/>
      <point x="484" y="492"/>
      <point x="567" y="492" type="curve"/>
      <point x="567" y="0" type="line"/>
      <point x="645" y="0" type="line"/>
      <point x="645" y="1184" type="line"/>
      <point x="456" y="1184" type="line" smooth="yes"/>
      <point x="141" y="1184"/>
      <point x="113" y="989"/>
      <point x="113" y="846" type="curve" smooth="yes"/>
      <point x="113" y="738"/>
      <point x="147" y="582"/>
      <point x="289" y="524" type="curve"/>
    </contour>
    <contour>
      <point x="483" y="550" type="curve"/>
      <point x="276" y="550"/>
      <point x="189" y="644"/>
      <point x="189" y="845" type="curve" smooth="yes"/>
      <point x="189" y="981"/>
      <point x="209" y="1125"/>
      <point x="455" y="1125" type="curve" smooth="yes"/>
      <point x="456" y="1125"/>
      <point x="566" y="1125"/>
      <point x="567" y="1125" type="curve"/>
      <point x="567" y="550" type="line"/>
      <point x="566" y="550"/>
      <point x="483" y="550"/>
    </contour>
  </outline>
</glyph>
<glyph name="afii10101" format="1">
  <advance width="758"/>
  <unicode hex="0454"/>
  <outline>
    <contour>
      <point x="382" y="-20" type="curve" smooth="yes"/>
      <point x="643" y="-20"/>
      <point x="662" y="164"/>
      <point x="662" y="400" type="curve" smooth="yes"/>
      <point x="662" y="420" type="line"/>
      <point x="586" y="420" type="line"/>
      <point x="586" y="400" type="line" smooth="yes"/>
      <point x="586" y="134"/>
      <point x="556" y="40"/>
      <point x="383" y="40" type="curve" smooth="yes"/>
      <point x="212" y="40"/>
      <point x="173" y="164"/>
      <point x="173" y="437" type="curve" smooth="yes"/>
      <point x="173" y="571" type="line"/>
      <point x="491" y="571" type="line"/>
      <point x="491" y="630" type="line"/>
      <point x="173" y="630" type="line"/>
      <point x="173" y="726" type="line" smooth="yes"/>
      <point x="173" y="1028"/>
      <point x="207" y="1144"/>
      <point x="382" y="1144" type="curve" smooth="yes"/>
      <point x="522" y="1144"/>
      <point x="586" y="1090"/>
      <point x="586" y="827" type="curve" smooth="yes"/>
      <point x="586" y="800" type="line"/>
      <point x="662" y="800" type="line"/>
      <point x="662" y="829" type="line" smooth="yes"/>
      <point x="662" y="1038"/>
      <point x="625" y="1204"/>
      <point x="381" y="1204" type="curve" smooth="yes"/>
      <point x="165" y="1204"/>
      <point x="96" y="1084"/>
      <point x="96" y="722" type="curve" smooth="yes"/>
      <point x="96" y="443" type="line" smooth="yes"/>
      <point x="96" y="192"/>
      <point x="123" y="-20"/>
    </contour>
  </outline>
</glyph>
<glyph name="afii10105" format="1">
  <advance width="397"/>
  <unicode hex="0458"/>
  <outline>
    <contour>
      <point x="-30" y="-321" type="line"/>
      <point x="-27" y="-322"/>
      <point x="13" y="-322"/>
      <point x="17" y="-322" type="curve" smooth="yes"/>
      <point x="163" y="-322"/>
      <point x="250" y="-262"/>
      <point x="250" y="-70" type="curve" smooth="yes"/>
      <point x="250" y="1184" type="line"/>
      <point x="172" y="1184" type="line"/>
      <point x="172" y="-67" type="line" smooth="yes"/>
      <point x="172" y="-156"/>
      <point x="171" y="-254"/>
      <point x="14" y="-254" type="curve" smooth="yes"/>
      <point x="13" y="-254"/>
      <point x="-29" y="-254"/>
      <point x="-30" y="-254" type="curve"/>
    </contour>
    <contour>
      <point x="172" y="1333" type="line"/>
      <point x="250" y="1333" type="line"/>
      <point x="250" y="1511" type="line"/>
      <point x="172" y="1511" type="line"/>
    </contour>
  </outline>
</glyph>
<glyph name="quoteleft" format="1">
  <advance width="375"/>
  <unicode hex="2018"/>
  <outline>
    <contour>
      <point x="107" y="1316" type="line"/>
      <point x="210" y="1316" type="line"/>
      <point x="210" y="1488" type="line"/>
      <point x="156" y="1488" type="line"/>
      <point x="156" y="1583"/>
      <point x="163" y="1625"/>
      <point x="231" y="1683" type="curve"/>
      <point x="200" y="1706" type="line"/>
      <point x="121" y="1650"/>
      <point x="107" y="1585"/>
      <point x="107" y="1458" type="curve" smooth="yes"/>
    </contour>
  </outline>
</glyph>
<glyph name="quoteright" format="1">
  <advance width="281"/>
  <unicode hex="2019"/>
  <outline>
    <contour>
      <point x="119" y="1268" type="line"/>
      <point x="198" y="1324"/>
      <point x="213" y="1389"/>
      <point x="213" y="1516" type="curve" smooth="yes"/>
      <point x="213" y="1658" type="line"/>
      <point x="109" y="1658" type="line"/>
      <point x="109" y="1486" type="line"/>
      <point x="164" y="1486" type="line"/>
      <point x="164" y="1391"/>
      <point x="157" y="1349"/>
      <point x="88" y="1291" type="curve"/>
    </contour>
  </outline>
</glyph>
<glyph name="quotedblright" format="1">
  <advance width="970"/>
  <unicode hex="201D"/>
  <outline>
    <contour>
      <point x="355" y="1268" type="line"/>
      <point x="434" y="1324"/>
      <point x="449" y="1389"/>
      <point x="449" y="1516" type="curve" smooth="yes"/>
      <point x="449" y="1658" type="line"/>
      <point x="346" y="1658" type="line"/>
      <point x="346" y="1486" type="line"/>
      <point x="400" y="1486" type="line"/>
      <point x="400" y="1391"/>
      <point x="393" y="1349"/>
      <point x="325" y="1291" type="curve"/>
    </contour>
    <contour>
      <point x="560" y="1268" type="line"/>
      <point x="639" y="1324"/>
      <point x="654" y="1389"/>
      <point x="654" y="1516" type="curve" smooth="yes"/>
      <point x="654" y="1658" type="line"/>
      <point x="550" y="1658" type="line"/>
      <point x="550" y="1486" type="line"/>
      <point x="605" y="1486" type="line"/>
      <point x="605" y="1391"/>
      <point x="598" y="1349"/>
      <point x="529" y="1291" type="curve"/>
    </contour>
  </outline>
</glyph>
<glyph name="bullet" format="1">
  <advance width="487"/>
  <unicode hex="2022"/>
  <outline>
    <contour>
      <point x="243" y="662" type="curve" smooth="yes"/>
      <point x="331" y="662"/>
      <point x="376" y="727"/>
      <point x="376" y="797" type="curve" smooth="yes"/>
      <point x="376" y="866"/>
      <point x="331" y="931"/>
      <point x="243" y="931" type="curve" smooth="yes"/>
      <point x="156" y="931"/>
      <point x="111" y="867"/>
      <point x="111" y="797" type="curve" smooth="yes"/>
      <point x="111" y="727"/>
      <point x="156" y="662"/>
    </contour>
  </outline>
</glyph>
<glyph name="ellipsis" format="1">
  <advance width="1041"/>
  <unicode hex="2026"/>
  <outline>
    <contour>
      <point x="144" y="0" type="line"/>
      <point x="238" y="0" type="line"/>
      <point x="238" y="205" type="line"/>
      <point x="144" y="205" type="line"/>
    </contour>
    <contour>
      <point x="491" y="0" type="line"/>
      <point x="585" y="0" type="line"/>
      <point x="585" y="205" type="line"/>
      <point x="491" y="205" type="line"/>
    </contour>
    <contour>
      <point x="838" y="0" type="line"/>
      <point x="932" y="0" type="line"/>
      <point x="932" y="205" type="line"/>
      <point x="838" y="205" type="line"/>
    </contour>
  </outline>
</glyph>
<glyph name="uni2074" format="1">
  <advance width="747"/>
  <unicode hex="2074"/>
  <outline>
    <contour>
      <point x="448" y="522" type="line"/>
      <point x="518" y="522" type="line"/>
      <point x="518" y="841" type="line"/>
      <point x="651" y="841" type="line"/>
      <point x="651" y="902" type="line"/>
      <point x="518" y="902" type="line"/>
      <point x="518" y="1658" type="line"/>
      <point x="442" y="1658" type="line"/>
      <point x="120" y="899" type="line"/>
      <point x="120" y="841" type="line"/>
      <point x="448" y="841" type="line"/>
    </contour>
    <contour>
      <point x="192" y="902" type="line"/>
      <point x="448" y="1532" type="line"/>
      <point x="448" y="902" type="line"/>
    </contour>
  </outline>
</glyph>
<glyph name="afii61289" format="1">
  <advance width="1024"/>
  <unicode hex="2113"/>
  <outline>
    <contour>
      <point x="586" y="969" type="curve" smooth="yes"/>
      <point x="166" y="338" type="line"/>
      <point x="208" y="302" type="line"/>
      <point x="631" y="929" type="line" smooth="yes"/>
      <point x="1303" y="1924"/>
      <point x="634" y="2062"/>
      <point x="574" y="1653" type="curve" smooth="yes"/>
      <point x="379" y="339" type="line" smooth="yes"/>
      <point x="312" y="-110"/>
      <point x="620" y="-111"/>
      <point x="806" y="148" type="curve"/>
      <point x="763" y="192" type="line"/>
      <point x="621" y="-17"/>
      <point x="390" y="-50"/>
      <point x="443" y="330" type="curve" smooth="yes"/>
      <point x="641" y="1652" type="line" smooth="yes"/>
      <point x="685" y="1951"/>
      <point x="1153" y="1820"/>
    </contour>
  </outline>
</glyph>
<glyph name="trademark" format="1">
  <advance width="1382"/>
  <unicode hex="2122"/>
  <outline>
    <contour>
      <point x="597" y="766" type="line"/>
      <point x="665" y="766" type="line"/>
      <point x="665" y="1511" type="line"/>
      <point x="920" y="766" type="line"/>
      <point x="952" y="766" type="line"/>
      <point x="1211" y="1528" type="line"/>
      <point x="1211" y="766" type="line"/>
      <point x="1278" y="766" type="line"/>
      <point x="1278" y="1658" type="line"/>
      <point x="1192" y="1658" type="line"/>
      <point x="936" y="894" type="line"/>
      <point x="681" y="1658" type="line"/>
      <point x="597" y="1658" type="line"/>
    </contour>
    <contour>
      <point x="234" y="766" type="line"/>
      <point x="307" y="766" type="line"/>
      <point x="307" y="1596" type="line"/>
      <point x="492" y="1596" type="line"/>
      <point x="492" y="1658" type="line"/>
      <point x="36" y="1658" type="line"/>
      <point x="36" y="1596" type="line"/>
      <point x="234" y="1596" type="line"/>
    </contour>
  </outline>
</glyph>
<glyph name="estimated" format="1">
  <advance width="781"/>
  <unicode hex="212E"/>
  <outline>
    <contour>
      <point x="402" y="-20" type="curve" smooth="yes"/>
      <point x="622" y="-20"/>
      <point x="680" y="113"/>
      <point x="680" y="305" type="curve" smooth="yes"/>
      <point x="680" y="397" type="line"/>
      <point x="622" y="397" type="line"/>
      <point x="622" y="302" type="line" smooth="yes"/>
      <point x="622" y="37"/>
      <point x="491" y="32"/>
      <point x="405" y="32" type="curve" smooth="yes"/>
      <point x="263" y="32"/>
      <point x="212" y="71"/>
      <point x="212" y="394" type="curve" smooth="yes"/>
      <point x="212" y="616" type="line"/>
      <point x="679" y="616" type="line"/>
      <point x="681" y="719" type="line" smooth="yes"/>
      <point x="681" y="1063"/>
      <point x="604" y="1174"/>
      <point x="404" y="1174" type="curve" smooth="yes"/>
      <point x="242" y="1174"/>
      <point x="112" y="1122"/>
      <point x="112" y="735" type="curve" smooth="yes"/>
      <point x="112" y="430" type="line" smooth="yes"/>
      <point x="112" y="48"/>
      <point x="240" y="-20"/>
    </contour>
    <contour>
      <point x="212" y="663" type="line"/>
      <point x="212" y="778" type="line" smooth="yes"/>
      <point x="212" y="1081"/>
      <point x="261" y="1122"/>
      <point x="404" y="1122" type="curve" smooth="yes"/>
      <point x="587" y="1122"/>
      <point x="587" y="997"/>
      <point x="587" y="769" type="curve" smooth="yes"/>
      <point x="587" y="663" type="line"/>
    </contour>
  </outline>
</glyph>
<glyph name="product" format="1">
  <advance width="1150"/>
  <unicode hex="220F"/>
  <outline>
    <contour>
      <point x="158" y="-390" type="line"/>
      <point x="236" y="-390" type="line"/>
      <point x="236" y="1596" type="line"/>
      <point x="914" y="1596" type="line"/>
      <point x="914" y="-390" type="line"/>
      <point x="992" y="-390" type="line"/>
      <point x="992" y="1658" type="line"/>
      <point x="158" y="1658" type="line"/>
    </contour>
  </outline>
</glyph>
<glyph name="summation" format="1">
  <advance width="769"/>
  <unicode hex="2211"/>
  <outline>
    <contour>
      <point x="79" y="-390" type="line"/>
      <point x="659" y="-390" type="line"/>
      <point x="659" y="-324" type="line"/>
      <point x="181" y="-324" type="line"/>
      <point x="522" y="668" type="line"/>
      <point x="184" y="1592" type="line"/>
      <point x="646" y="1592" type="line"/>
      <point x="646" y="1658" type="line"/>
      <point x="79" y="1658" type="line"/>
      <point x="445" y="668" type="line"/>
    </contour>
  </outline>
</glyph>
<glyph name="lessequal" format="1">
  <advance width="726"/>
  <unicode hex="2264"/>
  <outline>
    <contour>
      <point x="608" y="193" type="line"/>
      <point x="608" y="279" type="line"/>
      <point x="124" y="652" type="line"/>
      <point x="608" y="1044" type="line"/>
      <point x="608" y="1131" type="line"/>
      <point x="60" y="689" type="line"/>
      <point x="60" y="616" type="line"/>
    </contour>
    <contour>
      <point x="61" y="0" type="line"/>
      <point x="615" y="0" type="line"/>
      <point x="615" y="61" type="line"/>
      <point x="61" y="61" type="line"/>
    </contour>
  </outline>
</glyph>
<glyph name="lozenge" format="1">
  <advance width="814"/>
  <unicode hex="25CA"/>
  <outline>
    <contour>
      <point x="384" y="0" type="line"/>
      <point x="444" y="0" type="line"/>
      <point x="727" y="592" type="line"/>
      <point x="430" y="1184" type="line"/>
      <point x="370" y="1184" type="line"/>
      <point x="87" y="592" type="line"/>
    </contour>
    <contour>
      <point x="413" y="59" type="line"/>
      <point x="156" y="592" type="line"/>
      <point x="401" y="1124" type="line"/>
      <point x="660" y="592" type="line"/>
    </contour>
  </outline>
</glyph>
<glyph name="uniFB02" format="1">
  <advance width="869"/>
  <unicode hex="FB02"/>
  <outline>
    <contour>
      <point x="276" y="1131" type="line"/>
      <point x="479" y="1131" type="line"/>
      <point x="479" y="1184" type="line"/>
      <point x="276" y="1184" type="line"/>
      <point x="276" y="1184"/>
      <point x="276" y="1361"/>
      <point x="276" y="1361" type="curve" smooth="yes"/>
      <point x="276" y="1476"/>
      <point x="283" y="1567"/>
      <point x="490" y="1567" type="curve" smooth="yes"/>
      <point x="534" y="1567"/>
      <point x="587" y="1562"/>
      <point x="651" y="1554" type="curve"/>
      <point x="651" y="0" type="line"/>
      <point x="729" y="0" type="line"/>
      <point x="729" y="1601" type="line"/>
      <point x="632" y="1619"/>
      <point x="552" y="1627"/>
      <point x="487" y="1627" type="curve" smooth="yes"/>
      <point x="219" y="1627"/>
      <point x="198" y="1492"/>
      <point x="198" y="1372" type="curve" smooth="yes"/>
      <point x="198" y="1184" type="line"/>
      <point x="33" y="1184" type="line"/>
      <point x="33" y="1131" type="line"/>
      <point x="198" y="1131" type="line"/>
      <point x="198" y="0" type="line"/>
      <point x="276" y="0" type="line"/>
    </contour>
  </outline>
</glyph>
<glyph name="uni04AE" format="1">
  <advance width="843"/>
  <outline>
    <contour>
      <point x="394" y="0" type="line"/>
      <point x="472" y="0" type="line"/>
      <point x="472" y="713" type="line"/>
      <point x="843" y="1658" type="line"/>
      <point x="758" y="1658" type="line"/>
      <point x="539" y="1081" type="line"/>
      <point x="432" y="798" type="line"/>
      <point x="317" y="1084" type="line"/>
      <point x="86" y="1658" type="line"/>
      <point x="0" y="1658" type="line"/>
      <point x="394" y="713" type="line"/>
    </contour>
  </outline>
</glyph>
<glyph name="uni2215" format="1">
  <advance width="650"/>
  <outline>
    <contour>
      <point x="40" y="0" type="line"/>
      <point x="112" y="0" type="line"/>
      <point x="610" y="1658" type="line"/>
      <point x="539" y="1658" type="line"/>
    </contour>
  </outline>
</glyph>
